# xmcd
#
# Track frame offsets: 
#        150
#        19813
#        37040
#        55422
#        76668
#        95960
#        115143
#        134343
#        150256
#        170656
#        191643
#
# Disc length: 2852 seconds
#
# Revision: 2
# Processed by: cddbd v1.5.2PL0 Copyright (c) Steve Scherf et al.
# Submitted via: ExactAudioCopy v1.0b3
#
DISCID=8e0b220b
DTITLE=City and Colour - Little Hell
DYEAR=2011
DGENRE=Alternative
TTITLE0=We Found Each Other in the Dark
TTITLE1=Natural Disaster
TTITLE2=The Grand Optimist
TTITLE3=Little Hell
TTITLE4=Fragile Bird
TTITLE5=Northern Wind
TTITLE6=O' Sister
TTITLE7=Weightless
TTITLE8=Sorrowing Man
TTITLE9=Silver and Gold
TTITLE10=Hope for Now
EXTD=
EXTT0=
EXTT1=
EXTT2=
EXTT3=
EXTT4=
EXTT5=
EXTT6=
EXTT7=
EXTT8=
EXTT9=
EXTT10=
PLAYORDER=
